<svg width="818" height="668" viewBox="0 0 818 668" fill="none" xmlns="http://www.w3.org/2000/svg">
<path d="M809.499 334C809.499 513.574 660.272 659.5 475.752 659.5C291.232 659.5 142.005 513.574 142.005 334C142.005 154.426 291.232 8.5 475.752 8.5C660.272 8.5 809.499 154.426 809.499 334Z" fill="white" stroke="#005E36" stroke-width="17"/>
<rect x="113.349" y="209" width="85.9561" height="249" fill="white"/>
<path d="M11.2727 380V286.909H67.4545V296.909H22.5455V328.364H64.5455V338.364H22.5455V370H68.1818V380H11.2727ZM91.5909 286.909L119.227 365.273H120.318L147.955 286.909H159.773L125.591 380H113.955L79.7727 286.909H91.5909ZM174.273 380V286.909H230.455V296.909H185.545V328.364H227.545V338.364H185.545V370H231.182V380H174.273ZM250.773 380V286.909H282.227C289.5 286.909 295.47 288.152 300.136 290.636C304.803 293.091 308.258 296.47 310.5 300.773C312.742 305.076 313.864 309.97 313.864 315.455C313.864 320.939 312.742 325.803 310.5 330.045C308.258 334.288 304.818 337.621 300.182 340.045C295.545 342.439 289.621 343.636 282.409 343.636H256.955V333.455H282.045C287.015 333.455 291.015 332.727 294.045 331.273C297.106 329.818 299.318 327.758 300.682 325.091C302.076 322.394 302.773 319.182 302.773 315.455C302.773 311.727 302.076 308.47 300.682 305.682C299.288 302.894 297.061 300.742 294 299.227C290.939 297.682 286.894 296.909 281.864 296.909H262.045V380H250.773ZM294.591 338.182L317.5 380H304.409L281.864 338.182H294.591ZM396.284 316C395.284 312.939 393.966 310.197 392.33 307.773C390.723 305.318 388.799 303.227 386.557 301.5C384.345 299.773 381.83 298.455 379.011 297.545C376.193 296.636 373.102 296.182 369.739 296.182C364.223 296.182 359.208 297.606 354.693 300.455C350.178 303.303 346.587 307.5 343.92 313.045C341.254 318.591 339.92 325.394 339.92 333.455C339.92 341.515 341.269 348.318 343.966 353.864C346.663 359.409 350.314 363.606 354.92 366.455C359.527 369.303 364.708 370.727 370.466 370.727C375.799 370.727 380.496 369.591 384.557 367.318C388.648 365.015 391.83 361.773 394.102 357.591C396.405 353.379 397.557 348.424 397.557 342.727L401.011 343.455H373.011V333.455H408.466V343.455C408.466 351.121 406.83 357.788 403.557 363.455C400.314 369.121 395.83 373.515 390.102 376.636C384.405 379.727 377.86 381.273 370.466 381.273C362.223 381.273 354.981 379.333 348.739 375.455C342.527 371.576 337.678 366.061 334.193 358.909C330.739 351.758 329.011 343.273 329.011 333.455C329.011 326.091 329.996 319.47 331.966 313.591C333.966 307.682 336.784 302.652 340.42 298.5C344.057 294.348 348.36 291.167 353.33 288.955C358.299 286.742 363.769 285.636 369.739 285.636C374.648 285.636 379.223 286.379 383.466 287.864C387.739 289.318 391.542 291.394 394.875 294.091C398.239 296.758 401.042 299.955 403.284 303.682C405.527 307.379 407.072 311.485 407.92 316H396.284ZM427.773 380V286.909H459.227C466.5 286.909 472.47 288.152 477.136 290.636C481.803 293.091 485.258 296.47 487.5 300.773C489.742 305.076 490.864 309.97 490.864 315.455C490.864 320.939 489.742 325.803 487.5 330.045C485.258 334.288 481.818 337.621 477.182 340.045C472.545 342.439 466.621 343.636 459.409 343.636H433.955V333.455H459.045C464.015 333.455 468.015 332.727 471.045 331.273C474.106 329.818 476.318 327.758 477.682 325.091C479.076 322.394 479.773 319.182 479.773 315.455C479.773 311.727 479.076 308.47 477.682 305.682C476.288 302.894 474.061 300.742 471 299.227C467.939 297.682 463.894 296.909 458.864 296.909H439.045V380H427.773ZM471.591 338.182L494.5 380H481.409L458.864 338.182H471.591ZM509.648 380V286.909H565.83V296.909H520.92V328.364H562.92V338.364H520.92V370H566.557V380H509.648ZM586.148 380V286.909H642.33V296.909H597.42V328.364H639.42V338.364H597.42V370H643.057V380H586.148ZM736.466 286.909V380H725.557L674.83 306.909H673.92V380H662.648V286.909H673.557L724.466 360.182H725.375V286.909H736.466Z" fill="#005C41"/>
</svg>
